<svg xmlns="http://www.w3.org/2000/svg" width="179" height="27.563" viewBox="0 0 179 27.563">
  <g id="logo" transform="translate(-85.296 -94.426)">
    <g id="Group_1" data-name="Group 1" transform="translate(131.84 96.047)">
      <path id="Path_1" data-name="Path 1" d="M306.2,117.715c0,3.212,0,5.722.167,7.127.1.97.3,1.706,1.305,1.84a14.119,14.119,0,0,0,1.673.134c.435,0,.569.1.569.268,0,.234-.234.335-.736.335-2.108,0-4.216-.1-5.086-.1s-2.978.1-4.25.1c-.468,0-.7-.067-.7-.335,0-.167.134-.268.5-.268a5.471,5.471,0,0,0,1.2-.134c.669-.134.837-.87.97-1.84.167-1.405.167-3.915.167-7.127v-5.889c0-5.086,0-6.023-.067-7.094-.067-1.137-.335-1.673-1.439-1.907a6.9,6.9,0,0,0-1.3-.1c-.335,0-.569-.067-.569-.268,0-.268.268-.335.77-.335.87,0,1.84.033,2.71.033.87.034,1.639.067,2.108.067,1.271,0,8.064,0,8.834-.033a6.467,6.467,0,0,0,1.372-.134c.2-.067.368-.2.535-.2a.27.27,0,0,1,.234.3c0,.234-.167.636-.268,1.506-.033.334-.1,2.309-.167,2.71-.033.268-.1.468-.335.468s-.3-.167-.335-.535a3.278,3.278,0,0,0-.2-1.272,2.416,2.416,0,0,0-2.208-1l-5.153-.1c-.2,0-.3.1-.3.468v8.365c0,.2.033.3.234.3l4.283-.034c.569,0,1.037,0,1.506-.033a1.752,1.752,0,0,0,1.439-.6c.167-.2.234-.335.435-.335q.2,0,.2.3c0,.2-.167,1.037-.268,2.075-.067.669-.134,2.208-.134,2.442,0,.3,0,.636-.334.636-.2,0-.268-.234-.268-.468a3.681,3.681,0,0,0-.2-1.037,1.966,1.966,0,0,0-1.706-1.2c-.837-.1-4.383-.1-4.952-.1-.167,0-.234.067-.234.3Z" transform="translate(-298.608 -101.855)" fill="#201b18"/>
      <path id="Path_2" data-name="Path 2" d="M397.387,129.508c0-4.282,0-5.071-.056-5.972-.056-.958-.338-1.437-.958-1.578a3.994,3.994,0,0,0-1.014-.113c-.282,0-.451-.056-.451-.282,0-.169.225-.225.676-.225,1.07,0,2.845.085,3.662.085.7,0,2.366-.085,3.437-.085.366,0,.591.057.591.225,0,.225-.169.282-.451.282a4.745,4.745,0,0,0-.845.085c-.761.141-.986.62-1.042,1.606-.057.9-.057,1.69-.057,5.972v4.958c0,2.732,0,4.958.113,6.169.084.761.282,1.268,1.127,1.38a11.878,11.878,0,0,0,1.437.113c.31,0,.451.084.451.225,0,.2-.225.282-.535.282-1.859,0-3.634-.084-4.394-.084-.648,0-2.423.084-3.549.084-.366,0-.563-.084-.563-.282,0-.141.113-.225.451-.225a4.6,4.6,0,0,0,1.014-.113c.563-.113.732-.592.817-1.408.141-1.183.141-3.409.141-6.141Z" transform="translate(-373.896 -117.088)" fill="#201b18"/>
      <path id="Path_3" data-name="Path 3" d="M455.041,137.089c.056,2.2.423,2.93.986,3.127a4.471,4.471,0,0,0,1.465.2c.31,0,.479.056.479.225,0,.225-.254.282-.648.282-1.831,0-2.958-.084-3.493-.084-.254,0-1.578.084-3.042.084-.366,0-.62-.028-.62-.282,0-.169.169-.225.451-.225a4.992,4.992,0,0,0,1.268-.141c.732-.225.845-1.042.873-3.493l.254-16.677c0-.563.084-.958.366-.958.31,0,.564.366,1.042.873.338.366,4.62,4.958,8.733,9.042,1.916,1.916,5.718,5.972,6.2,6.423h.141l-.282-12.648c-.028-1.718-.282-2.254-.958-2.535a4.594,4.594,0,0,0-1.493-.169c-.338,0-.451-.084-.451-.254,0-.225.31-.254.732-.254,1.465,0,2.817.085,3.409.085.31,0,1.38-.085,2.761-.085.366,0,.648.028.648.254q0,.254-.507.254a3.063,3.063,0,0,0-.845.085c-.789.225-1.014.817-1.042,2.394l-.31,17.775c0,.62-.113.873-.366.873-.31,0-.648-.31-.958-.62-1.775-1.69-5.38-5.38-8.31-8.282-3.07-3.042-6.2-6.564-6.7-7.1h-.084Z" transform="translate(-417.098 -115.372)" fill="#201b18"/>
      <path id="Path_4" data-name="Path 4" d="M577.992,129.508c0-4.282,0-5.071-.056-5.972-.056-.958-.282-1.409-1.211-1.606a5.776,5.776,0,0,0-1.1-.085c-.31,0-.479-.056-.479-.254s.2-.254.619-.254c1.493,0,3.268.085,4.057.085.873,0,2.648-.085,4.338-.085,3.521,0,8.225,0,11.3,3.211a10.065,10.065,0,0,1,2.732,7.155,11.19,11.19,0,0,1-3.07,7.859c-1.3,1.324-4.226,3.324-9.437,3.324-1.014,0-2.169-.084-3.24-.169s-2.056-.169-2.761-.169c-.31,0-.929,0-1.606.028-.648,0-1.38.056-1.944.056-.366,0-.563-.084-.563-.282,0-.141.113-.225.451-.225a4.6,4.6,0,0,0,1.014-.113c.563-.113.7-.732.817-1.549.141-1.183.141-3.408.141-6Zm3.521,3.1c0,2.986.028,5.155.056,5.691a6.154,6.154,0,0,0,.31,2.141c.366.535,1.465,1.127,3.69,1.127,2.873,0,4.789-.563,6.479-2.028,1.8-1.549,2.366-4.113,2.366-7.014a9.575,9.575,0,0,0-2.7-7.042,11.166,11.166,0,0,0-8-2.817,7.517,7.517,0,0,0-1.831.2.511.511,0,0,0-.338.563c-.028.958-.028,3.409-.028,5.634Z" transform="translate(-514.807 -117.088)" fill="#ea7613"/>
      <path id="Path_5" data-name="Path 5" d="M695.606,130.575c0-4.817,3.183-11.043,11.634-11.043,7.014,0,11.381,4.085,11.381,10.536s-4.507,11.55-11.662,11.55C698.874,141.617,695.606,135.561,695.606,130.575Zm19.071.535c0-6.31-3.634-10.226-8.254-10.226-3.24,0-6.93,1.8-6.93,8.817,0,5.859,3.24,10.507,8.648,10.507C710.114,140.209,714.677,139.251,714.677,131.11Z" transform="translate(-608.983 -115.675)" fill="#ea7613"/>
      <path id="Path_6" data-name="Path 6" d="M819.429,138.547a11.157,11.157,0,0,1-.2-16.029c2.028-1.859,4.7-2.986,8.9-2.986a27.838,27.838,0,0,1,4.085.282c1.07.141,1.972.394,2.817.479.31.028.422.169.422.338,0,.225-.084.563-.141,1.549-.056.93-.028,2.479-.085,3.042-.028.423-.084.648-.338.648-.225,0-.282-.225-.282-.62a4.02,4.02,0,0,0-1.1-2.592c-.93-.986-3.127-1.747-5.719-1.747a7.345,7.345,0,0,0-5.3,1.747c-2.056,1.887-2.592,4.563-2.592,7.3,0,6.7,5.1,10.028,8.874,10.028,2.507,0,4.028-.282,5.155-1.578a4.7,4.7,0,0,0,.958-1.859c.084-.451.141-.563.366-.563.2,0,.253.2.253.423a26.765,26.765,0,0,1-.62,3.747,1,1,0,0,1-.732.817,16.325,16.325,0,0,1-5.071.648C825.232,141.617,821.992,140.772,819.429,138.547Z" transform="translate(-703.058 -115.675)" fill="#ea7613"/>
    </g>
    <path id="Path_8" data-name="Path 8" d="M157.1,135.273v0h5.578c4.564,0,7.918-3.432,7.918-8.424,0-5.032-3.51-8.5-8.191-8.5h-3.9v16.925Z" transform="translate(-56.136 -18.702)" fill="none"/>
    <g id="Group_2350" data-name="Group 2350" transform="translate(85.296 94.426)">
      <path id="Path_7" data-name="Path 7" d="M85.82,94.426h15.646l.057,5.228-8.511.008L93,105.15l5.978.013,1.048-.622v6.481l-.753-.622H93.022v9.1l1.375,2.226H85.3l1.212-1.932L86.737,96Z" transform="translate(-85.296 -94.426)" fill="#ea7613"/>
      <path id="Path_9" data-name="Path 9" d="M137.218,94.574H133.4v5.187h3.712c4.453,0,7.793,3.471,7.793,8.5,0,4.993-3.191,8.424-7.533,8.424H132.06v0h-7.382l-.005,2.828,1.486,2.362H137c8.2,0,13.88-5.617,13.88-13.652C150.875,100.151,145.271,94.574,137.218,94.574Z" transform="translate(-116.081 -94.542)"/>
    </g>
  </g>
</svg>
